<?xml version="1.0" encoding="UTF-8" standalone="no"?>
<!-- Created with Inkscape (http://www.inkscape.org/) -->

<svg
   width="13.758222mm"
   height="9.7854738mm"
   viewBox="0 0 13.758222 9.7854738"
   version="1.1"
   id="svg22"
   xmlns="http://www.w3.org/2000/svg"
   xmlns:svg="http://www.w3.org/2000/svg">
  <defs
     id="defs19" />
  <g
     id="layer1"
     transform="translate(-93.384231,-113.97617)">
    <path
       style="fill:#00d455;stroke-width:0.0268833"
       d="m 96.817731,123.70569 c -0.0686,-0.0362 -0.12069,-0.0928 -0.16007,-0.17382 l -0.0584,-0.12016 0.0614,-0.37844 c 0.0338,-0.20815 0.0574,-0.38213 0.0525,-0.38663 -0.005,-0.004 -0.0875,-0.0438 -0.18359,-0.0874 -0.73743,-0.33445 -1.4582,-1.02789 -1.85289,-1.78263 l -0.14001,-0.26772 h -0.40644 c -0.47758,0 -0.58714,-0.0338 -0.6873,-0.21201 -0.0581,-0.10339 -0.0587,-0.11786 -0.0587,-1.40099 0,-1.27077 0.001,-1.29854 0.0569,-1.39783 0.10406,-0.18514 0.19859,-0.21517 0.67723,-0.21517 h 0.41768 l 0.13618,-0.25868 c 0.1897,-0.36033 0.40154,-0.64764 0.71019,-0.9632 l 0.26425,-0.27015 -0.0436,-0.1613 c -0.0629,-0.2329 -0.26324,-0.62372 -0.39963,-0.77962 -0.21553,-0.24635 -0.25163,-0.38368 -0.15214,-0.5787 0.0664,-0.13024 0.18539,-0.19502 0.46358,-0.25248 0.40749,-0.0842 0.9557,-0.0406 1.31785,0.1046 0.32262,0.12941 0.62764,0.36308 0.8193,0.62766 l 0.0833,0.11502 2.13247,0.007 c 2.107499,0.007 2.135609,0.007 2.401289,0.0675 0.75912,0.17215 1.43449,0.51431 1.94129,0.98354 l 0.19209,0.17784 0.0736,-0.0965 c 0.0973,-0.12761 0.46236,-0.41792 0.65241,-0.51886 0.28459,-0.15116 0.49839,-0.20534 0.81017,-0.2053 0.3438,2e-5 0.56643,0.0666 0.80152,0.23967 0.40213,0.29603 0.51206,0.7603 0.28775,1.21519 -0.11168,0.22646 -0.35895,0.47384 -0.52266,0.52289 -0.26697,0.08 -0.51284,-0.10168 -0.51284,-0.37892 0,-0.14038 0.0553,-0.24679 0.1763,-0.33905 0.29854,-0.22771 0.18358,-0.45401 -0.23063,-0.45401 -0.17316,0 -0.2272,0.0123 -0.37637,0.0859 -0.18464,0.0911 -0.42415,0.28864 -0.564,0.46521 l -0.0844,0.10661 0.18939,0.38354 c 0.22145,0.44848 0.33556,0.81423 0.39573,1.26851 0.0491,0.37073 0.0381,0.82662 -0.0291,1.20544 -0.21892,1.23392 -1.08391,2.37445 -2.21439,2.91979 -0.12316,0.0594 -0.23628,0.11214 -0.25136,0.11717 -0.0176,0.006 -0.005,0.14563 0.0345,0.39106 l 0.062,0.38192 -0.0584,0.12028 c -0.0412,0.0847 -0.0902,0.13648 -0.16572,0.17502 -0.10153,0.0518 -0.15452,0.0547 -0.98878,0.0541 -1.16295,-8.2e-4 -1.147,0.006 -1.24253,-0.53531 l -0.0454,-0.25716 h -0.749579 -0.74958 l -0.0454,0.25716 c -0.0576,0.32664 -0.10477,0.41837 -0.24855,0.48365 -0.10331,0.0469 -0.18477,0.051 -0.99963,0.0505 -0.83411,-6.1e-4 -0.89323,-0.004 -0.98884,-0.0543 z m 0.38438,-5.66618 c 0.28429,-0.15127 0.27408,-0.57789 -0.0171,-0.71608 -0.28081,-0.13326 -0.60268,0.0959 -0.56792,0.40435 0.0323,0.28684 0.33188,0.44645 0.58506,0.31173 z m 4.865889,-0.8065 c 0.28076,-0.14939 0.27434,-0.57777 -0.0107,-0.71301 -0.0819,-0.0388 -0.28012,-0.0436 -1.80437,-0.0436 -1.892719,0 -1.830169,-0.005 -1.956289,0.17133 -0.0835,0.11708 -0.0837,0.34652 -3.3e-4,0.46337 0.12597,0.17659 0.0564,0.17051 1.957039,0.17118 1.62488,6.1e-4 1.72618,-0.002 1.81462,-0.0492 z"
       id="path39" />
  </g>
</svg>
