<?xml version="1.0" encoding="UTF-8" standalone="no"?>
<!-- Created with Inkscape (http://www.inkscape.org/) -->

<svg
   width="74.468735mm"
   height="9.7854738mm"
   viewBox="0 0 74.468735 9.7854738"
   version="1.1"
   id="svg5"
   xmlns="http://www.w3.org/2000/svg"
   xmlns:svg="http://www.w3.org/2000/svg">
  <defs
     id="defs2" />
  <g
     id="layer1"
     transform="translate(-81.040115,-111.91364)">
    <path
       style="fill:#00d455;stroke-width:0.0268833"
       d="m 107.9762,121.64316 c -0.0686,-0.0362 -0.12069,-0.0928 -0.16007,-0.17382 l -0.0584,-0.12016 0.0614,-0.37844 c 0.0338,-0.20815 0.0574,-0.38213 0.0525,-0.38663 -0.005,-0.004 -0.0875,-0.0438 -0.18359,-0.0874 -0.73743,-0.33445 -1.4582,-1.02789 -1.85289,-1.78263 l -0.14001,-0.26772 h -0.40644 c -0.47758,0 -0.58714,-0.0338 -0.6873,-0.21201 -0.0581,-0.10339 -0.0587,-0.11786 -0.0587,-1.40099 0,-1.27077 0.001,-1.29854 0.0569,-1.39783 0.10406,-0.18514 0.19859,-0.21517 0.67723,-0.21517 h 0.41768 l 0.13618,-0.25868 c 0.1897,-0.36033 0.40154,-0.64764 0.71019,-0.9632 l 0.26425,-0.27015 -0.0436,-0.1613 c -0.0629,-0.2329 -0.26324,-0.62372 -0.39963,-0.77962 -0.21553,-0.24635 -0.25163,-0.38368 -0.15214,-0.5787 0.0664,-0.13024 0.18539,-0.19502 0.46358,-0.25248 0.40749,-0.0842 0.9557,-0.0406 1.31785,0.1046 0.32262,0.12941 0.62764,0.36308 0.8193,0.62766 l 0.0833,0.11502 2.13247,0.007 c 2.1075,0.007 2.13561,0.007 2.40129,0.0675 0.75912,0.17215 1.43449,0.51431 1.94129,0.98354 l 0.19209,0.17784 0.0736,-0.0965 c 0.0973,-0.12761 0.46236,-0.41792 0.65241,-0.51886 0.28459,-0.15116 0.49839,-0.20534 0.81017,-0.2053 0.3438,2e-5 0.56643,0.0666 0.80152,0.23967 0.40213,0.29603 0.51206,0.7603 0.28775,1.21519 -0.11168,0.22646 -0.35895,0.47384 -0.52266,0.52289 -0.26697,0.08 -0.51284,-0.10168 -0.51284,-0.37892 0,-0.14038 0.0553,-0.24679 0.1763,-0.33905 0.29854,-0.22771 0.18358,-0.45401 -0.23063,-0.45401 -0.17316,0 -0.2272,0.0123 -0.37637,0.0859 -0.18464,0.0911 -0.42415,0.28864 -0.564,0.46521 l -0.0844,0.10661 0.18939,0.38354 c 0.22145,0.44848 0.33556,0.81423 0.39573,1.26851 0.0491,0.37073 0.0381,0.82662 -0.0291,1.20544 -0.21892,1.23392 -1.08391,2.37445 -2.21439,2.91979 -0.12316,0.0594 -0.23628,0.11214 -0.25136,0.11717 -0.0176,0.006 -0.005,0.14563 0.0345,0.39106 l 0.062,0.38192 -0.0584,0.12028 c -0.0412,0.0847 -0.0902,0.13648 -0.16572,0.17502 -0.10153,0.0518 -0.15452,0.0547 -0.98878,0.0541 -1.16295,-8.2e-4 -1.147,0.006 -1.24253,-0.53531 l -0.0454,-0.25716 h -0.74958 -0.74958 l -0.0454,0.25716 c -0.0576,0.32664 -0.10477,0.41837 -0.24855,0.48365 -0.10331,0.0469 -0.18477,0.051 -0.99963,0.0505 -0.83411,-6.1e-4 -0.89323,-0.004 -0.98884,-0.0543 z m 0.38438,-5.66618 c 0.28429,-0.15127 0.27408,-0.57789 -0.0171,-0.71608 -0.28081,-0.13326 -0.60268,0.0959 -0.56792,0.40435 0.0323,0.28684 0.33188,0.44645 0.58506,0.31173 z m 4.86589,-0.8065 c 0.28076,-0.14939 0.27434,-0.57777 -0.0107,-0.71301 -0.0819,-0.0388 -0.28012,-0.0436 -1.80437,-0.0436 -1.89272,0 -1.83017,-0.005 -1.95629,0.17133 -0.0835,0.11708 -0.0837,0.34652 -3.3e-4,0.46337 0.12597,0.17659 0.0564,0.17051 1.95704,0.17118 1.62488,6.1e-4 1.72618,-0.002 1.81462,-0.0492 z"
       id="path39" />
    <g
       aria-label="final"
       id="text1932"
       style="font-size:10.5833px;line-height:1.25;fill:#4d4d4d;stroke-width:0.264583">
      <path
         d="m 83.188525,112.64184 q 0.370415,0 0.634998,0.0529 0.264582,0.0423 0.380998,0.0847 l -0.137582,0.84666 q -0.116417,-0.0423 -0.317499,-0.0847 -0.201083,-0.0529 -0.486832,-0.0529 -0.687915,0 -0.96308,0.381 -0.275166,0.37041 -0.275166,1.00541 v 0.47625 h 2.11666 v 0.8255 h -2.11666 v 4.67782 h -0.984247 v -6.00073 q 0,-1.05833 0.518582,-1.62983 0.518581,-0.58208 1.629828,-0.58208 z m 2.963324,8.21264 h -0.984247 v -5.50332 h 0.984247 z m -0.497415,-6.49815 q -0.264583,0 -0.455082,-0.16933 -0.179916,-0.17992 -0.179916,-0.47625 0,-0.29633 0.179916,-0.46567 0.190499,-0.17991 0.455082,-0.17991 0.264582,0 0.444498,0.17991 0.1905,0.16934 0.1905,0.46567 0,0.29633 -0.1905,0.47625 -0.179916,0.16933 -0.444498,0.16933 z"
         style="font-family:Ubuntu;-inkscape-font-specification:Ubuntu"
         id="path5280" />
      <path
         d="m 87.845173,115.50991 q 0.338665,-0.0847 0.89958,-0.17992 0.560915,-0.0952 1.291163,-0.0952 0.656165,0 1.09008,0.1905 0.433915,0.17992 0.687914,0.51859 0.264583,0.32808 0.370416,0.79374 0.105833,0.46567 0.105833,1.02658 v 3.09033 h -0.984247 v -2.87866 q 0,-0.508 -0.07408,-0.86783 -0.0635,-0.35983 -0.22225,-0.58208 -0.158749,-0.22225 -0.423331,-0.3175 -0.264583,-0.10583 -0.656165,-0.10583 -0.15875,0 -0.328082,0.0106 -0.169333,0.0106 -0.328083,0.0318 -0.148166,0.0106 -0.275165,0.0318 -0.116417,0.0212 -0.169333,0.0318 v 4.64607 h -0.984247 z"
         style="font-family:Ubuntu;-inkscape-font-specification:Ubuntu"
         id="path5282" />
      <path
         d="m 95.782641,120.1454 q 0.349249,0 0.613832,-0.0106 0.275165,-0.0212 0.455082,-0.0635 v -1.64041 q -0.105833,-0.0529 -0.349249,-0.0847 -0.232833,-0.0423 -0.571499,-0.0423 -0.222249,0 -0.476248,0.0318 -0.243416,0.0318 -0.455082,0.13758 -0.201083,0.0952 -0.338665,0.27517 -0.137583,0.16933 -0.137583,0.45508 0,0.52917 0.338665,0.74083 0.338666,0.20109 0.920747,0.20109 z m -0.08467,-4.93182 q 0.592665,0 0.99483,0.15875 0.412749,0.14816 0.656165,0.43391 0.253999,0.27517 0.359832,0.66675 0.105833,0.381 0.105833,0.84666 v 3.43958 q -0.127,0.0212 -0.359832,0.0635 -0.22225,0.0317 -0.507999,0.0635 -0.285749,0.0318 -0.624414,0.0529 -0.328083,0.0318 -0.656165,0.0318 -0.465665,0 -0.857247,-0.0952 -0.391582,-0.0953 -0.677331,-0.29633 -0.28575,-0.21166 -0.444499,-0.55033 -0.15875,-0.33867 -0.15875,-0.81491 0,-0.45509 0.179917,-0.78317 0.190499,-0.32808 0.507998,-0.52916 0.317499,-0.20109 0.740831,-0.29634 0.423332,-0.0953 0.888997,-0.0953 0.148166,0 0.306916,0.0212 0.158749,0.0106 0.296332,0.0423 0.148166,0.0212 0.253999,0.0423 0.105833,0.0212 0.148167,0.0318 v -0.27517 q 0,-0.24341 -0.05292,-0.47625 -0.05292,-0.24341 -0.190499,-0.42333 -0.137583,-0.1905 -0.380999,-0.29633 -0.232833,-0.11642 -0.613832,-0.11642 -0.486831,0 -0.857247,0.0741 -0.359832,0.0635 -0.539748,0.13758 l -0.116416,-0.81492 q 0.190499,-0.0847 0.634998,-0.15875 0.444498,-0.0847 0.96308,-0.0847 z"
         style="font-family:Ubuntu;-inkscape-font-specification:Ubuntu"
         id="path5284" />
      <path
         d="m 101.09545,120.96031 q -0.91016,-0.0212 -1.291162,-0.39158 -0.380999,-0.37042 -0.380999,-1.15358 v -6.60398 l 0.984251,-0.16933 v 6.61456 q 0,0.24341 0.0423,0.40216 0.0423,0.15875 0.13758,0.254 0.0952,0.0953 0.254,0.14817 0.15875,0.0423 0.39158,0.0741 z"
         style="font-family:Ubuntu;-inkscape-font-specification:Ubuntu"
         id="path5286" />
    </g>
    <g
       aria-label="finance"
       id="text2332"
       style="font-size:10.5833px;line-height:1.25;fill:#666666;stroke-width:0.264583">
      <path
         d="m 123.759,112.63656 q 0.37041,0 0.635,0.0529 0.26458,0.0423 0.38099,0.0847 l -0.13758,0.84666 q -0.11641,-0.0423 -0.3175,-0.0847 -0.20108,-0.0529 -0.48683,-0.0529 -0.68791,0 -0.96308,0.381 -0.27517,0.37042 -0.27517,1.00541 v 0.47625 h 2.11666 v 0.8255 h -2.11666 v 4.67782 h -0.98424 v -6.00073 q 0,-1.05833 0.51858,-1.62983 0.51858,-0.58208 1.62983,-0.58208 z m 2.96332,8.21264 h -0.98425 v -5.50332 h 0.98425 z m -0.49741,-6.49815 q -0.26459,0 -0.45509,-0.16933 -0.17991,-0.17992 -0.17991,-0.47625 0,-0.29633 0.17991,-0.46567 0.1905,-0.17991 0.45509,-0.17991 0.26458,0 0.44449,0.17991 0.1905,0.16934 0.1905,0.46567 0,0.29633 -0.1905,0.47625 -0.17991,0.16933 -0.44449,0.16933 z"
         style="font-family:Ubuntu;-inkscape-font-specification:Ubuntu"
         id="path5249" />
      <path
         d="m 128.41565,115.50463 q 0.33866,-0.0847 0.89958,-0.17992 0.56091,-0.0952 1.29116,-0.0952 0.65616,0 1.09008,0.19049 0.43391,0.17992 0.68791,0.51859 0.26459,0.32808 0.37042,0.79374 0.10583,0.46567 0.10583,1.02658 v 3.09033 h -0.98425 v -2.87866 q 0,-0.508 -0.0741,-0.86783 -0.0635,-0.35983 -0.22225,-0.58208 -0.15875,-0.22225 -0.42333,-0.3175 -0.26458,-0.10583 -0.65616,-0.10583 -0.15875,0 -0.32809,0.0106 -0.16933,0.0106 -0.32808,0.0318 -0.14817,0.0106 -0.27516,0.0318 -0.11642,0.0212 -0.16934,0.0318 v 4.64607 h -0.98424 z"
         style="font-family:Ubuntu;-inkscape-font-specification:Ubuntu"
         id="path5251" />
      <path
         d="m 136.35311,120.14012 q 0.34925,0 0.61384,-0.0106 0.27516,-0.0212 0.45508,-0.0635 v -1.64041 q -0.10584,-0.0529 -0.34925,-0.0847 -0.23283,-0.0423 -0.5715,-0.0423 -0.22225,0 -0.47625,0.0318 -0.24341,0.0318 -0.45508,0.13758 -0.20108,0.0952 -0.33867,0.27517 -0.13758,0.16933 -0.13758,0.45508 0,0.52917 0.33867,0.74083 0.33866,0.20109 0.92074,0.20109 z m -0.0847,-4.93182 q 0.59266,0 0.99483,0.15875 0.41275,0.14816 0.65616,0.43391 0.254,0.27517 0.35983,0.66675 0.10584,0.381 0.10584,0.84667 v 3.43957 q -0.127,0.0212 -0.35983,0.0635 -0.22225,0.0318 -0.508,0.0635 -0.28575,0.0318 -0.62442,0.0529 -0.32808,0.0318 -0.65616,0.0318 -0.46567,0 -0.85725,-0.0952 -0.39158,-0.0953 -0.67733,-0.29633 -0.28575,-0.21166 -0.4445,-0.55033 -0.15875,-0.33867 -0.15875,-0.81491 0,-0.45509 0.17992,-0.78317 0.1905,-0.32808 0.508,-0.52916 0.31749,-0.20109 0.74083,-0.29634 0.42333,-0.0953 0.88899,-0.0953 0.14817,0 0.30692,0.0212 0.15875,0.0106 0.29633,0.0423 0.14817,0.0212 0.254,0.0423 0.10583,0.0212 0.14817,0.0318 v -0.27517 q 0,-0.24341 -0.0529,-0.47625 -0.0529,-0.24341 -0.1905,-0.42333 -0.13758,-0.1905 -0.381,-0.29633 -0.23283,-0.11642 -0.61383,-0.11642 -0.48683,0 -0.85725,0.0741 -0.35983,0.0635 -0.53974,0.13758 l -0.11642,-0.81492 q 0.1905,-0.0847 0.635,-0.15874 0.4445,-0.0847 0.96308,-0.0847 z"
         style="font-family:Ubuntu;-inkscape-font-specification:Ubuntu"
         id="path5253" />
      <path
         d="m 140.01493,115.50463 q 0.33866,-0.0847 0.89958,-0.17992 0.56091,-0.0952 1.29116,-0.0952 0.65617,0 1.09008,0.19049 0.43392,0.17992 0.68792,0.51859 0.26458,0.32808 0.37041,0.79374 0.10583,0.46567 0.10583,1.02658 v 3.09033 h -0.98424 v -2.87866 q 0,-0.508 -0.0741,-0.86783 -0.0635,-0.35983 -0.22225,-0.58208 -0.15874,-0.22225 -0.42333,-0.3175 -0.26458,-0.10583 -0.65616,-0.10583 -0.15875,0 -0.32808,0.0106 -0.16934,0.0106 -0.32809,0.0318 -0.14816,0.0106 -0.27516,0.0318 -0.11642,0.0212 -0.16933,0.0318 v 4.64607 h -0.98425 z"
         style="font-family:Ubuntu;-inkscape-font-specification:Ubuntu"
         id="path5255" />
      <path
         d="m 148.48156,120.9762 q -0.66675,0 -1.17474,-0.21167 -0.49742,-0.21167 -0.84667,-0.59266 -0.33866,-0.381 -0.508,-0.89958 -0.16933,-0.52917 -0.16933,-1.16417 0,-0.635 0.17992,-1.16416 0.1905,-0.52917 0.52916,-0.91016 0.33867,-0.39159 0.8255,-0.60325 0.49741,-0.22225 1.10066,-0.22225 0.37042,0 0.74083,0.0635 0.37042,0.0635 0.70908,0.20108 l -0.22224,0.83608 q -0.22225,-0.10583 -0.51859,-0.16933 -0.28575,-0.0635 -0.61383,-0.0635 -0.8255,0 -1.26999,0.51858 -0.43392,0.51858 -0.43392,1.51341 0,0.4445 0.0952,0.81492 0.10583,0.37041 0.3175,0.63499 0.22225,0.26459 0.56091,0.41275 0.33867,0.13759 0.8255,0.13759 0.39158,0 0.70908,-0.0741 0.3175,-0.0741 0.49742,-0.15875 l 0.13758,0.8255 q -0.0847,0.0529 -0.24342,0.10583 -0.15874,0.0423 -0.35983,0.0741 -0.20108,0.0423 -0.43391,0.0635 -0.22225,0.0318 -0.43392,0.0318 z"
         style="font-family:Ubuntu;-inkscape-font-specification:Ubuntu"
         id="path5257" />
      <path
         d="m 150.70404,118.10812 q 0,-0.73024 0.21166,-1.26999 0.21167,-0.55033 0.56092,-0.91017 0.34925,-0.35983 0.80433,-0.53975 0.45508,-0.17991 0.93133,-0.17991 1.11124,0 1.70391,0.6985 0.59266,0.68791 0.59266,2.10607 0,0.0635 0,0.16934 0,0.0953 -0.0106,0.17991 h -3.76765 q 0.0635,0.85725 0.49741,1.30175 0.43392,0.4445 1.35466,0.4445 0.51859,0 0.86783,-0.0847 0.35984,-0.0953 0.53975,-0.17992 l 0.13759,0.8255 q -0.17992,0.0952 -0.635,0.20108 -0.4445,0.10584 -1.016,0.10584 -0.71966,0 -1.24883,-0.21167 -0.51858,-0.22225 -0.85725,-0.60325 -0.33866,-0.381 -0.50799,-0.89958 -0.15875,-0.52916 -0.15875,-1.15358 z m 3.77823,-0.53975 q 0.0106,-0.66674 -0.33866,-1.09008 -0.33867,-0.43391 -0.94192,-0.43391 -0.33866,0 -0.60324,0.13758 -0.254,0.127 -0.43392,0.33867 -0.17991,0.21166 -0.28575,0.48683 -0.0952,0.27517 -0.127,0.56091 z"
         style="font-family:Ubuntu;-inkscape-font-specification:Ubuntu"
         id="path5259" />
    </g>
  </g>
</svg>
